<?xml version="1.0"?>
<svg xmlns="http://www.w3.org/2000/svg" viewBox="0 0 512 512" width="256" height="256"><g id="Out_line" data-name="Out line"><path d="M153.09009,128.07007A9.80388,9.80388,0,0,0,152,128h1.05Z"/><path d="M232.71,69.83008,232,70.01V64A24.23565,24.23565,0,0,0,232.71,69.83008Z"/><path d="M153.09009,128.07007A9.80388,9.80388,0,0,0,152,128h1.05Z"/><path d="M232.71,69.83008,232,70.01V64A24.23565,24.23565,0,0,0,232.71,69.83008Z"/><path d="M311.75977,454.06006A8.00043,8.00043,0,0,0,304,448V424a8.008,8.008,0,0,0-2.33984-5.66016L296,412.67993V392a7.95258,7.95258,0,0,0-1.21973-4.24l-31.45019-50.32007v-.01A31.62015,31.62015,0,0,0,253.02,319.85986l7.6001-15.21972a7.99838,7.99838,0,0,0-3.56006-10.73023,55.7059,55.7059,0,0,0-9.74-3.8L235.73,263.07007A7.97259,7.97259,0,0,0,240,256V240a23.938,23.938,0,0,0,17.87012-8h19.29a42.73317,42.73317,0,0,0,40.71972-29.51l-15.1997-4.98a26.78429,26.78429,0,0,1-25.52,18.49H264v-8h16a7.9979,7.9979,0,0,0,8-8v-8h16V176H288V160h16V144H288v-8a7.9979,7.9979,0,0,0-8-8H254.95l5.34009-8,2.37012-3.56006A8.02792,8.02792,0,0,0,264,112V88.66992A48.06394,48.06394,0,0,1,304,136h16a63.97325,63.97325,0,0,0-28.64014-53.31006,39.98268,39.98268,0,0,0-59.21-50.78A43.02564,43.02564,0,0,0,198.7,16h-53.3999A43.02564,43.02564,0,0,0,111.8501,31.90991a39.98588,39.98588,0,0,0-59.21,50.78A64.00985,64.00985,0,0,0,24.5,128H24a7.9979,7.9979,0,0,0-8,8v24a7.9979,7.9979,0,0,0,8,8H38.81006A71.87381,71.87381,0,0,0,67.2,230.3999,8.00235,8.00235,0,0,0,72,232h32v22.37012L88.67993,290.10986a55.7059,55.7059,0,0,0-9.74,3.8,7.99838,7.99838,0,0,0-3.56006,10.73023L82.98,319.85986a31.68929,31.68929,0,0,0-10.31006,17.57007L41.22,387.76A7.9507,7.9507,0,0,0,40,392v20.67993l-5.65991,5.65991A8.00827,8.00827,0,0,0,32,424v24a8.00091,8.00091,0,0,0-7.76,6.06006l-8,32A7.99622,7.99622,0,0,0,24,496H312a7.99482,7.99482,0,0,0,7.75977-9.93994ZM284.68018,424H240v16h48v8H208v-8h8a8.01058,8.01058,0,0,0,7.15991-4.41992l1.59009-3.2002A34.95879,34.95879,0,0,1,271.62012,416.75l11.63965,5.83008ZM259.1499,360.91992,280,394.29v8.77l-1.21973-.62012A50.89521,50.89521,0,0,0,211.08008,424h-3.92017l-7.01-63.14014L202.03,355.21a31.98933,31.98933,0,0,0,57.11987,5.71ZM248,344a16.00008,16.00008,0,1,1-16-16,16.02238,16.02238,0,0,1,16,16Zm-5.62012-38.6499L238.71,312.7a32.096,32.096,0,0,0-34.83984,16.02l-7.98-1.99a40.13843,40.13843,0,0,1,46.48974-21.37988Zm-106.19995-20.05-6.07983,9.11987A55.87644,55.87644,0,0,0,106.95,288.08008L117.27,264H136v17.37012Q136,283.34985,136.17993,285.30005ZM120,248V232h40v16Zm40-32H144V192h16Zm24,48v17.37012a27.13956,27.13956,0,0,1-8,19.31982,11.32253,11.32253,0,0,1-16,0,27.13956,27.13956,0,0,1-8-19.31982V264ZM144,432.42993l7.95-71.55a7.89374,7.89374,0,0,0-.35986-3.40991l-5.27-15.8,6.2-1.5498a7.99642,7.99642,0,0,0,5.82007-9.69019A55.87909,55.87909,0,0,0,151.7,314.6001a27.30148,27.30148,0,0,0,32.6001,0,55.87909,55.87909,0,0,0-6.64014,15.82983,7.99642,7.99642,0,0,0,5.82007,9.69019l6.2,1.5498-5.27,15.80005a7.89374,7.89374,0,0,0-.35986,3.40991L192,432.42993V448H144ZM176,248V224h24v24Zm42.73,16,10.32007,24.08008a55.83461,55.83461,0,0,0-23.15015,6.33984l-6.07983-9.11987q.17981-1.95008.17993-3.92993V264ZM216,248v-9.37988A23.59674,23.59674,0,0,0,224,240v8Zm-16-40H176V192a7.9979,7.9979,0,0,0,8-8v-8h16Zm48,8a8.01074,8.01074,0,0,1-8,8H224a8.01074,8.01074,0,0,1-8-8v-8h32Zm24-24H216V176h56Zm0-48v16H184a7.9979,7.9979,0,0,0-8-8H160v-8ZM166.95,120H184v8H172.29ZM248,104h-8V80h8ZM232,64a24,24,0,1,1,45.03027,11.56006A62.788,62.788,0,0,0,264,72.5V72a7.9979,7.9979,0,0,0-8-8H232a24.23565,24.23565,0,0,0,.71,5.83008L232,70.01Zm9.05,56L235.71,128H224v-8ZM221.29,44.12012A39.855,39.855,0,0,0,216,64V48a31.76573,31.76573,0,0,0-2.07007-11.32007A27.0108,27.0108,0,0,1,221.29,44.12012Zm-7.63013,57.53979A8.00769,8.00769,0,0,0,216,96V80h8v24H211.32007ZM208,128h-8v-8h8Zm-8-35.31006L188.68994,104H168V62.95l11.56006,7.71a8.013,8.013,0,0,0,8.87988,0L200,62.95ZM160,32h24a16.03655,16.03655,0,0,1,15.51,12.05L184,54.37988l-19.56006-13.04A8.02591,8.02591,0,0,0,160,40a8.01486,8.01486,0,0,0-8,8v4.68994l-7.71-7.72A16.02039,16.02039,0,0,1,160,32ZM144,67.32007l8,8V92.68994l-8-8ZM130.07007,36.67993A31.76573,31.76573,0,0,0,128,48V64a39.855,39.855,0,0,0-5.29-19.87988A27.0108,27.0108,0,0,1,130.07007,36.67993ZM120,80h8v8a8.00769,8.00769,0,0,0,2.34009,5.65991L144.93994,108.26a7.98456,7.98456,0,0,0,.40015,8.17993L153.05005,128l.04.07007A9.80388,9.80388,0,0,0,152,128h-4.68994L120,100.68994Zm0,43.32007,6.21,6.21a32.37169,32.37169,0,0,0-6.21,2.77ZM120,160a16.02116,16.02116,0,0,1,16-16h8v16a7.9979,7.9979,0,0,0,8,8h16v8H120ZM88,40a24.03189,24.03189,0,0,1,24,24H88a7.9979,7.9979,0,0,0-8,8v.5a62.78221,62.78221,0,0,0-13.03,3.06006A23.99646,23.99646,0,0,1,88,40ZM80,88.66992V128H40.66992A48.11625,48.11625,0,0,1,80,88.66992ZM32,152v-8H88a7.9979,7.9979,0,0,0,8-8V80h8v72Zm39.56006,61.12988A55.8605,55.8605,0,0,1,54.87012,168H104v12.67993ZM91.32007,216l24-24H128v24ZM104,304a39.93531,39.93531,0,0,1,36.10986,22.73l-7.98,1.99A32.096,32.096,0,0,0,97.29,312.7l-3.66992-7.34985A39.87911,39.87911,0,0,1,104,304Zm-7.12988,25.67993A15.78038,15.78038,0,0,1,104,328a15.959,15.959,0,0,1,15.52,12.14014A15.57586,15.57586,0,0,1,120,344a16,16,0,1,1-23.12988-14.32007ZM56,394.29l20.8501-33.37012A31.98933,31.98933,0,0,0,133.97,355.21l1.88013,5.6499L128.84009,424h-3.92017A50.92007,50.92007,0,0,0,57.22,402.43994l-1.22.62012ZM48,440H96V424H51.32007L52.74,422.58008,64.37988,416.76a34.89387,34.89387,0,0,1,40.32007,6.54,34.55319,34.55319,0,0,1,6.54,9.07983l1.6001,3.2002A8.01058,8.01058,0,0,0,120,440h8v8H48ZM34.25,480l4-16h259.5l4,16Z"/><path d="M232.71,69.83008,232,70.01V64A24.23565,24.23565,0,0,0,232.71,69.83008Z"/><path d="M495.49023,301.18994l-4.34033-11.56006a88.80037,88.80037,0,0,0-166.2998,0l-4.34033,11.56006A7.94262,7.94262,0,0,0,320,304V488a7.9979,7.9979,0,0,0,8,8H488a7.9979,7.9979,0,0,0,8-8V304A7.94262,7.94262,0,0,0,495.49023,301.18994Zm-155.66015-5.95a72.80648,72.80648,0,0,1,136.33984,0l.29.76H339.54ZM480,480H336v-8H480Zm0-24H336V368H480Zm0-104H336v-8H480Zm0-24H336V312H480Z"/><path d="M432,376H384a7.9979,7.9979,0,0,0-8,8v32a8.00745,8.00745,0,0,0,2.33984,5.65991l24,24a8.01538,8.01538,0,0,0,11.32032,0l24-24A8.00745,8.00745,0,0,0,440,416V384A7.9979,7.9979,0,0,0,432,376Zm-8,36.68994-16,16-16-16V392h32Z"/><path d="M484.48,17.37012a7.97723,7.97723,0,0,0-7.51025-.77l-20.05957,8.22a71.02647,71.02647,0,0,0-43.09034,53.46,7.6969,7.6969,0,0,0-2.00976,2.05l-18.41992,27.27A24.95912,24.95912,0,0,0,362.10986,135.5a24.99181,24.99181,0,0,0-14.21972,39.43994l-6.64991,9.86011c-25.36035,37.53-50.04,76.25-73.36035,115.07983l13.72022,8.24024C304.77,269.53,329.2998,231.06006,354.49023,193.75l5.92969-8.77,17.74024,11.98c-5.01026,7.52-10.09034,15.08008-15.16993,22.54l13.2295,9c5.61035-8.25,11.23047-16.60986,16.73047-24.91016a23.65117,23.65117,0,0,0,2.90966.18018,24.94684,24.94684,0,0,0,24.71-28.78,24.93715,24.93715,0,0,0,15.14991-38.07007c5.95019-9.59985,11.89013-19.33008,17.70019-28.98a7.79908,7.79908,0,0,0,.91992-2.2998A71.09226,71.09226,0,0,0,487.87012,45.73L488,24.05005A8.00564,8.00564,0,0,0,484.48,17.37012Zm-81.1499,166.46a8.98435,8.98435,0,0,1-12.46,2.40991l-28.12012-19A8.97247,8.97247,0,0,1,366.06982,151a9.116,9.116,0,0,1,1.72022-.16016,8.85129,8.85129,0,0,1,5,1.54l28.12988,19a8.9768,8.9768,0,0,1,2.41016,12.4502Zm19-28.12012a8.98418,8.98418,0,0,1-12.46,2.41016l-28.12012-19a8.98439,8.98439,0,0,1-2.41016-12.46021A8.977,8.977,0,0,1,391.79,124.25l28.12988,19a8.98614,8.98614,0,0,1,2.41016,12.46Zm1.12012-29.37012L407.37988,115.48l13.21-19.56006,15.2002,10.27C431.71,112.90991,427.58984,119.6499,423.4502,126.33984Zm48.41992-80.71a55.09071,55.09071,0,0,1-27.26026,47.21L429.33984,82.51a55.08543,55.08543,0,0,1,33.62989-42.88989L471.93018,35.95Z"/></g></svg>
